# xmcd CD database file
#
# Track frame offsets:
#	189
#	19606
#	47279
#	70965
#	92931
#	106826
#	122421
#	140773
#	164678
#	183135
#	197083
#	219948
#	237185
#	255967
#	270385
#	281067
#	297933
#	330299
#
# Disc length: 4607 seconds
#
# Revision: 4
# Processed by: cddbd v1.5.1PL0 Copyright (c) Steve Scherf et al.
# Submitted via: CDex 1.51
#
DISCID=f911fd12
DTITLE=Various Artist - The all time greatest blues songs CD1
DYEAR=2001
DGENRE=Blues
TTITLE0=Robert Cray - Right Next Door (Because Of Me)
TTITLE1=Gary Moore - Still Got The Blues
TTITLE2=Muddy Waters - Mannish Boy
TTITLE3=The Vaughan Brothers - Tick Tock
TTITLE4=Etta James - I Just Want To Make Love To You
TTITLE5=B.B. King - Ain't Nobode Home
TTITLE6=Muskee - Brother Booze
TTITLE7=Albert Collins - Cold Cold Feeling
TTITLE8=Rory Block - Lovin' Whiskey
TTITLE9=Wilson Pickett - Mustang Sally
TTITLE10=Walter Trout Band - The Love That We Once Knew
TTITLE11=ZZ Top - La Grange
TTITLE12=Freddie King - Tore Down
TTITLE13=Chicken Shack - I'd Rather Go Blind
TTITLE14=J.J. Cale - After Midnight
TTITLE15=Flavium - Nightlife
TTITLE16=Derek and The Dominos - Layla
TTITLE17=Ry Cooder - Dark End Of The Street
EXTD=YEAR: 2001
EXTT0=
EXTT1=
EXTT2=
EXTT3=
EXTT4=
EXTT5=
EXTT6=
EXTT7=
EXTT8=
EXTT9=
EXTT10=
EXTT11=
EXTT12=
EXTT13=
EXTT14=
EXTT15=
EXTT16=
EXTT17=
PLAYORDER=
